<svg
  xmlns="http://www.w3.org/2000/svg"
  fill="none"
  viewBox="0 0 597 155"
>
  <style>
    path.invertible {
      fill: currentColor;
    }
    @media (prefers-color-scheme: dark) {
      path.invertible { fill: white; }
    }
  </style>
  <path
    fill="currentColor"
    d="M53 94V54h19v70H53v-13c-2 4-5 8-8 10-4 3-8 4-14 4l-12-3c-3-2-6-5-8-9s-3-9-3-14V54h19v41c0 4 1 8 3 10 3 2 6 4 9 4l7-2 5-5 2-8Zm34 56V54h19v12h1l4-6 6-5 10-2a26 26 0 0 1 25 16c2 6 3 12 3 20s-1 15-3 20c-3 5-6 9-11 12-4 3-9 4-14 4-4 0-7 0-9-2l-7-4-4-6v37H87Zm19-61 2 11 5 7c2 2 5 3 8 3s6-1 8-3l5-7 2-11-2-11-5-7-8-2-8 2-5 7-2 11Zm153 36c-7 0-13-1-17-4-5-3-9-7-12-13-2-5-4-11-4-18 0-8 2-14 4-19 3-6 7-10 11-13 5-3 11-5 17-5l11 2a27 27 0 0 1 16 17c2 4 3 10 3 16v5h-54V83h43l-2-10a18 18 0 0 0-17-10c-4 0-8 1-11 3s-6 5-7 8c-2 4-3 7-3 11v6c0 6 1 10 3 14 2 3 4 6 8 8a23 23 0 0 0 19 2l6-4 3-6 11 3-6 9c-2 3-5 5-9 6-4 2-8 2-13 2Zm45-1V54h11v70h-11Zm6-81-6-3-2-5 2-5 6-2 5 2c2 2 2 3 2 5s0 4-2 5c-1 2-3 3-5 3Zm53 109-14-2a28 28 0 0 1-15-12l9-6 3 4 7 4c2 2 6 2 10 2 5 0 10-1 14-4 3-3 5-7 5-13v-14h-1l-3 5-6 5-11 2c-6 0-11-1-15-4-5-3-8-7-11-12-2-5-4-11-4-18s2-14 4-19c3-5 6-9 11-12 4-3 9-5 15-5 5 0 8 1 11 3 3 1 5 3 6 5l3 4h2V54h10v72c0 6-1 11-4 15-3 3-6 6-11 8l-15 3Zm-1-39c5 0 8-1 11-3s6-4 7-8c2-4 2-8 2-13s0-10-2-14c-1-4-4-7-7-9s-6-3-11-3a18 18 0 0 0-18 13l-2 13 2 12c2 4 4 7 7 9s7 3 11 3Zm61-31v42h-10V31h10v34h1c2-4 4-6 8-8 3-3 7-4 13-4 5 0 9 1 12 3 4 2 7 5 9 9s3 9 3 15v44h-11V80c0-5-2-9-4-12-3-4-7-5-12-5l-10 2c-3 2-5 4-6 7-2 2-3 6-3 10Zm96-28v9h-37v-9h37Zm-26-17h11v67l1 7 3 3 5 1 3-1h2l2 10a22 22 0 0 1-8 1l-9-2c-3-1-5-3-7-6s-3-6-3-10V37Zm49 113a23 23 0 0 1-8-1l3-10 6 1 6-2 4-8 2-6-26-70h12l19 56h1l19-56h12l-30 80c-1 4-3 7-5 9-2 3-4 4-7 5-2 2-5 2-8 2Z"
    class="invertible"
  />
  <path fill="#F65009" d="m216 27-30 111h-16l30-111h16Z" />
</svg>